<?xml version="1.0" encoding="UTF-8" standalone="no"?>
<!-- Created with Inkscape (http://www.inkscape.org/) -->

<svg
   width="203.26199"
   height="315.2796"
   viewBox="0 0 203.26199 315.2796"
   version="1.1"
   id="svg5"
   xmlns="http://www.w3.org/2000/svg"
   xmlns:svg="http://www.w3.org/2000/svg">
  <defs
     id="defs2" />
  <g
     id="layer1"
     transform="translate(-583.87624,-345.12851)">
    <g
       id="g411">
      <path
         id="path127"
         style="fill:none;stroke:#000000;stroke-width:3.64724"
         d="m 741.02267,347.88775 0.83354,52.06667 m 9.89638,-25.40845 0.93071,22.61675 m -164.72258,12.59594 153.74959,-62.23921 10.20353,27.01651 33.06655,11.18441 m -180.11666,239.5969 24.20017,32.69559 m -23.34014,-34.35032 -19.08441,14.14497 m 21.65592,-225.50312 -3.12898,212.55156 m 23.70365,34.00241 5.13252,-219.03781 m 150.62466,164.35363 -155.42492,54.27514 -43.49086,-19.18329 2.20504,-229.07338 20.11061,1.67912 26.02107,27.15141 151.25852,-53.34907 z" />
      <path
         style="fill:#ff0000;stroke:#666666;stroke-width:1.88707"
         d="m 631.2366,645.06247 c 0.18011,-5.6202 1.34032,-53.84598 2.57824,-107.16839 1.23792,-53.32241 2.44154,-97.11645 2.67471,-97.32009 0.23317,-0.20365 33.01985,-11.84919 72.85928,-25.87898 39.83943,-14.02979 72.72636,-25.61548 73.08207,-25.74597 0.71063,-0.26069 0.79067,72.15446 0.18312,165.6826 l -0.31247,48.10174 -75.0223,26.24069 c -41.26227,14.43239 -75.32557,26.25561 -75.69622,26.27383 -0.54249,0.0267 -0.61005,-1.95973 -0.34643,-10.18543 z"
         id="path385" />
      <path
         style="fill:#ff0000;stroke:#666666;stroke-width:1.88707"
         d="m 616.89607,637.97393 -9.66952,-13.0728 1.50933,-102.12942 c 0.83012,-56.17117 1.57258,-102.80563 1.64989,-103.63213 0.13125,-1.40305 0.8503,-0.76645 10.84196,9.59868 l 10.70139,11.1014 L 629.454,545.241 c -1.36131,57.97074 -2.5681,105.49232 -2.68176,105.60353 -0.11365,0.1112 -4.55793,-5.68056 -9.87617,-12.8706 z"
         id="path387" />
      <path
         style="fill:#ff0000;stroke:#666666;stroke-width:1.88707"
         d="m 588.03714,620.01357 c 0.0359,-29.00521 1.95812,-206.95199 2.23861,-207.23248 0.281,-0.281 15.41739,0.81661 15.76449,1.14316 0.20779,0.19548 -2.35774,180.3972 -2.80724,197.17962 l -0.32035,11.96023 -5.46756,4.07902 c -3.00715,2.24347 -6.35808,4.73945 -7.4465,5.54663 l -1.97894,1.46759 z"
         id="path389" />
      <path
         style="fill:#ff0000;stroke:#666666;stroke-width:1.88707"
         d="m 605.42668,645.68843 c -8.49616,-3.79594 -15.55181,-7.00595 -15.67922,-7.13336 -0.35264,-0.35264 13.89181,-10.69664 14.34465,-10.41677 0.37492,0.23171 16.94237,22.54452 17.75264,23.90901 0.2307,0.38849 0.11361,0.62599 -0.29322,0.59478 -0.37251,-0.0286 -7.62869,-3.15773 -16.12485,-6.95366 z"
         id="path391" />
      <path
         style="fill:#ff0000;stroke:#666666;stroke-width:1.88707"
         d="m 627.62592,429.26772 c -3.68533,-3.89028 -9.38961,-9.84606 -12.67618,-13.23507 l -5.97558,-6.16184 -6.42031,-0.5643 -6.42031,-0.5643 71.29467,-28.86041 c 39.21206,-15.87322 71.35666,-28.79517 71.43243,-28.71543 0.0758,0.0797 0.3082,10.98663 0.51651,24.23753 l 0.37873,24.09256 -51.67989,18.22189 c -28.42394,10.02204 -52.14554,18.31204 -52.71468,18.42224 -0.77775,0.15058 -2.69919,-1.55661 -7.73539,-6.87287 z"
         id="path393" />
      <path
         style="fill:#ff0000;stroke:#666666;stroke-width:1.88707"
         d="m 754.44292,388.95185 c -0.18373,-2.77454 -0.33526,-6.49001 -0.33673,-8.25662 l -0.003,-3.21201 11.51205,3.89707 c 6.33162,2.14339 11.68708,4.06651 11.90102,4.27361 0.30473,0.29498 -21.36845,8.34255 -22.46759,8.34255 -0.14961,0 -0.42234,-2.27007 -0.60607,-5.0446 z"
         id="path395" />
      <path
         style="fill:#ff0000;stroke:#666666;stroke-width:1.88707"
         d="m 743.75561,389.1491 c 0,-4.92551 -0.12504,-13.94061 -0.27787,-20.03355 l -0.27787,-11.07807 2.09226,5.17395 c 4.49535,11.11659 4.55095,11.37995 4.75023,22.49777 l 0.18069,10.08028 -3.23372,1.15755 -3.23372,1.15754 z"
         id="path397" />
      <path
         style="fill:#0000ff;stroke:#666666;stroke-width:4.59249"
         d="m 643.74803,451.17924 0.17436,15.80399 19.53883,-6.43008 1.12416,34.49564 15.85925,-4.25431 -3.30909,-33.05713 21.96772,-5.91772 -2.40857,-15.82714 z"
         id="path129" />
      <path
         id="path133"
         style="fill:#0000ff;stroke:#4d4d4d;stroke-width:4.97583"
         d="m 710.32265,496.25849 -2.46085,12.06219 9.00426,-3.13879 z m -8.59351,-10.10397 14.95649,-4.50757 22.52664,48.87209 -11.32624,2.08055 -11.06818,-19.35136 -7.6369,2.2497 -2.88594,21.88407 -10.46188,2.35727 z" />
      <path
         style="fill:#0000ff;stroke:#666666;stroke-width:4.16126"
         d="m 725.3301,562.5399 -9.58033,43.09324 14.73398,-3.31817 6.61243,-28.08605 5.66682,14.5915 7.22021,-1.82146 4.81498,-19.85952 8.46898,28.43386 14.39366,-3.73389 -19.19832,-39.58901 -9.26806,3.06057 -2.31906,18.36777 -13.07863,-13.15039 z"
         id="path135" />
    </g>
  </g>
</svg>
